<svg xmlns="http://www.w3.org/2000/svg" viewBox="0 0 512 512" width="512" height="512" role="img" aria-label="Aqus K">
  <defs>
    <linearGradient id="fill" x1="0" y1="0" x2="1" y2="1">
      <stop offset="0" stop-color="#b593dc"></stop>
      <stop offset="0.55" stop-color="#9a5dd5"></stop>
      <stop offset="1" stop-color="#8341be"></stop>
    </linearGradient>
    <linearGradient id="gloss" x1="0" y1="0" x2="0" y2="1">
      <stop offset="0" stop-color="#ffffff" stop-opacity="0.58"></stop>
      <stop offset="0.52" stop-color="#ffffff" stop-opacity="0"></stop>
    </linearGradient>
    <clipPath id="clip"><path d="M219.55,28.16 L219.55,28.16 C365.52,28.16 483.84,117.92 483.84,228.66 L483.84,228.66 C483.84,369.6 355.32,483.84 196.76,483.84 L196.76,483.84 C103.64,483.84 28.16,363.48 28.16,214.99 L28.16,214.99 C28.16,111.8 113.84,28.16 219.55,28.16 Z"></path></clipPath>
    <filter id="drop" x="-20%" y="-20%" width="140%" height="150%">
      <feDropShadow dx="0" dy="23.04" stdDeviation="25.6" flood-color="#3c1458" flood-opacity="0.32"></feDropShadow>
    </filter>
  </defs>
  <path d="M219.55,28.16 L219.55,28.16 C365.52,28.16 483.84,117.92 483.84,228.66 L483.84,228.66 C483.84,369.6 355.32,483.84 196.76,483.84 L196.76,483.84 C103.64,483.84 28.16,363.48 28.16,214.99 L28.16,214.99 C28.16,111.8 113.84,28.16 219.55,28.16 Z" fill="url(#fill)" filter="url(#drop)"></path>
  <g clip-path="url(#clip)"><rect x="28.16" y="28.16" width="455.68" height="236.95" fill="url(#gloss)"></rect></g>
  <path transform="translate(256 256) scale(0.34 -0.34) translate(-369 -352.5)" d="M157 -10Q112 -10 88 15Q64 40 64 84L64 621Q64 667 88 691Q112 715 157 715Q200 715 224 691Q248 667 248 621L248 403L250 403L493 671Q512 691 533.5 702.5Q555 714 582 714Q623 714 642 692.5Q661 671 659.5 642.5Q658 614 635 590L394 333L395 409L648 122Q674 92 674 61.5Q674 31 653 10.5Q632 -10 593 -10Q559 -10 538.5 4Q518 18 495 45L250 319L248 319L248 84Q248 40 224.5 15Q201 -10 157 -10Z" fill="#ffffff"></path>
</svg>